<?xml version="1.0" encoding="UTF-8"?>
<svg version="1.0" xmlns="http://www.w3.org/2000/svg" width="1000" height="600" viewBox="0 0 1000 600">
<rect width="1000" height="600" fill="#d00"/>
<circle cx="450" cy="300" r="225" fill="#fff"/>
<g id="g2037" transform="matrix(3.5394712,0,0,3.5394712,-2355.0834,-576.84644)">
<path d="m 785.28008,240.49898 a 117.9918,117.9918 0 0 0 -10.49506,-42.66335 h 35.45964 a 117.9918,117.9918 0 0 0 -10.49506,42.66335 117.9918,117.9918 0 0 0 42.66335,-10.49506 v 35.45964 a 117.9918,117.9918 0 0 0 -42.66335,-10.49506 117.9918,117.9918 0 0 0 10.49506,42.66335 h -35.45964 a 117.9918,117.9918 0 0 0 10.49506,-42.66335 117.9918,117.9918 0 0 0 -42.66335,10.49506 v -35.45964 a 117.9918,117.9918 0 0 0 42.66335,10.49506 z" style="stroke-width:1.24202" />
<path d="m 785.28008,240.49898 a 117.9918,117.9918 0 0 0 -10.49506,-42.66335 h 35.45964 a 117.9918,117.9918 0 0 0 -10.49506,42.66335 117.9918,117.9918 0 0 0 42.66335,-10.49506 v 35.45964 a 117.9918,117.9918 0 0 0 -42.66335,-10.49506 117.9918,117.9918 0 0 0 10.49506,42.66335 h -35.45964 a 117.9918,117.9918 0 0 0 10.49506,-42.66335 117.9918,117.9918 0 0 0 -42.66335,10.49506 v -35.45964 a 117.9918,117.9918 0 0 0 42.66335,10.49506 z" style="fill:none;stroke:#000000;stroke-width:13.2896" />
<path d="m 785.28008,240.49898 a 117.9918,117.9918 0 0 0 -10.49506,-42.66335 h 35.45964 a 117.9918,117.9918 0 0 0 -10.49506,42.66335 117.9918,117.9918 0 0 0 42.66335,-10.49506 v 35.45964 a 117.9918,117.9918 0 0 0 -42.66335,-10.49506 117.9918,117.9918 0 0 0 10.49506,42.66335 h -35.45964 a 117.9918,117.9918 0 0 0 10.49506,-42.66335 117.9918,117.9918 0 0 0 -42.66335,10.49506 v -35.45964 a 117.9918,117.9918 0 0 0 42.66335,10.49506 z" style="fill:none;stroke:#ffffff;stroke-width:6.3343" />
<path d="m 785.28008,240.49898 a 117.9918,117.9918 0 0 0 -10.49506,-42.66335 h 35.45964 a 117.9918,117.9918 0 0 0 -10.49506,42.66335 117.9918,117.9918 0 0 0 42.66335,-10.49506 v 35.45964 a 117.9918,117.9918 0 0 0 -42.66335,-10.49506 117.9918,117.9918 0 0 0 10.49506,42.66335 h -35.45964 a 117.9918,117.9918 0 0 0 10.49506,-42.66335 117.9918,117.9918 0 0 0 -42.66335,10.49506 v -35.45964 a 117.9918,117.9918 0 0 0 42.66335,10.49506 z" style="stroke-width:1.24202" />
</g>
</svg>